<?xml version="1.0" encoding="UTF-8" standalone="no"?>
<!-- Created with Inkscape (http://www.inkscape.org/) -->

<svg
   xmlns:osb="http://www.openswatchbook.org/uri/2009/osb"
   xmlns:dc="http://purl.org/dc/elements/1.1/"
   xmlns:cc="http://creativecommons.org/ns#"
   xmlns:rdf="http://www.w3.org/1999/02/22-rdf-syntax-ns#"
   xmlns:svg="http://www.w3.org/2000/svg"
   xmlns="http://www.w3.org/2000/svg"
   xmlns:xlink="http://www.w3.org/1999/xlink"
   xmlns:sodipodi="http://sodipodi.sourceforge.net/DTD/sodipodi-0.dtd"
   xmlns:inkscape="http://www.inkscape.org/namespaces/inkscape"
   width="512"
   height="512"
   viewBox="0 0 135.46666 135.46667"
   version="1.1"
   id="svg8"
   inkscape:version="0.92.3 (2405546, 2018-03-11)"
   sodipodi:docname="logo.svg">
  <defs
     id="defs2">
    <linearGradient
       inkscape:collect="always"
       id="linearGradient2357">
      <stop
         style="stop-color:#00eb03;stop-opacity:1"
         offset="0"
         id="stop2353" />
      <stop
         style="stop-color:#00ebff;stop-opacity:0"
         offset="1"
         id="stop2355" />
    </linearGradient>
    <linearGradient
       id="linearGradient2303"
       osb:paint="solid">
      <stop
         style="stop-color:#406269;stop-opacity:1;"
         offset="0"
         id="stop2301" />
    </linearGradient>
    <linearGradient
       id="linearGradient2295"
       osb:paint="solid">
      <stop
         style="stop-color:#6c783b;stop-opacity:1;"
         offset="0"
         id="stop2293" />
    </linearGradient>
    <linearGradient
       inkscape:collect="always"
       xlink:href="#linearGradient2295"
       id="linearGradient2297"
       x1="35.586462"
       y1="223.92334"
       x2="124.13369"
       y2="223.92334"
       gradientUnits="userSpaceOnUse" />
    <linearGradient
       inkscape:collect="always"
       xlink:href="#linearGradient2357"
       id="linearGradient2359"
       x1="36.285713"
       y1="170.75594"
       x2="121.70833"
       y2="281.88092"
       gradientUnits="userSpaceOnUse"
       spreadMethod="pad" />
  </defs>
  <sodipodi:namedview
     id="base"
     pagecolor="#ffffff"
     bordercolor="#666666"
     borderopacity="1.0"
     inkscape:pageopacity="0.0"
     inkscape:pageshadow="2"
     inkscape:zoom="0.35"
     inkscape:cx="730.84823"
     inkscape:cy="504.36608"
     inkscape:document-units="mm"
     inkscape:current-layer="layer1"
     showgrid="false"
     units="px"
     inkscape:window-width="1920"
     inkscape:window-height="1015"
     inkscape:window-x="0"
     inkscape:window-y="0"
     inkscape:window-maximized="1" />
  <metadata
     id="metadata5">
    <rdf:RDF>
      <cc:Work
         rdf:about="">
        <dc:format>image/svg+xml</dc:format>
        <dc:type
           rdf:resource="http://purl.org/dc/dcmitype/StillImage" />
        <dc:title />
      </cc:Work>
    </rdf:RDF>
  </metadata>
  <g
     inkscape:label="Layer 1"
     inkscape:groupmode="layer"
     id="layer1"
     transform="translate(0,-161.53332)">
    <ellipse
       style="fill:#ffffff;fill-opacity:1;fill-rule:evenodd;stroke:#2f7990;stroke-width:0.26458332;stroke-opacity:0"
       id="path834"
       cx="69.320831"
       cy="228.8887"
       rx="52.538689"
       ry="54.42857" />
    <g
       aria-label="Q"
       transform="matrix(0.93847686,0,0,0.8243442,0.69402347,34.304467)"
       style="font-style:normal;font-weight:normal;font-size:10.89590073px;line-height:1.25;font-family:sans-serif;letter-spacing:0px;word-spacing:0px;fill:#212121;fill-opacity:1;stroke:none;stroke-width:0.27239752"
       id="text16">
      <path
         d="m 65.346635,183.92945 c 16.779687,0 30.76276,15.5085 30.76276,41.18651 0,22.75427 -11.313577,37.62717 -25.805125,37.62717 -15.508499,0 -30.508523,-15.38138 -30.508523,-39.7882 0,-26.69495 13.983073,-39.02548 25.550888,-39.02548 z m 42.203455,38.77125 c 0,-26.3136 -17.796637,-41.8221 -40.55091,-41.8221 -12.711885,0 -23.262749,5.97458 -30.254285,15.5085 -5.593229,7.75425 -8.389844,17.66952 -8.389844,28.72886 0,23.77122 15.889856,39.02548 35.847514,40.55091 -9.788151,4.44916 -18.813589,11.82205 -23.262748,18.30511 l 4.957635,2.54238 c 2.542377,-5.84747 7.372893,-7.50002 9.279675,-7.50002 11.822053,0 19.83054,12.07629 36.355989,12.07629 8.008488,0 13.347474,-3.30509 18.305114,-10.42374 l -2.16102,-1.52543 c -2.79662,3.43221 -7.37289,5.33899 -11.05934,5.33899 -11.186458,0 -21.483084,-10.42374 -35.466157,-10.42374 -0.762713,0 -2.288139,0.12712 -3.177971,0.25424 6.355942,-4.7034 13.22036,-7.88137 17.415281,-9.15256 10.423746,-1.77966 18.813589,-7.24577 24.533937,-15.38138 5.08475,-7.11865 7.62713,-16.39833 7.62713,-27.07631 z M 65.346635,187.87013 c 13.474597,0 26.822076,12.33053 26.822076,37.24583 0,21.35596 -10.296627,33.68649 -21.864441,33.68649 -12.330528,0 -26.567839,-12.33053 -26.567839,-35.84752 0,-24.91529 12.584766,-35.0848 21.610204,-35.0848 z m 0,-1.01695 c -9.788151,0 -22.627154,10.93222 -22.627154,36.10175 0,23.89835 14.491548,36.86447 27.584789,36.86447 12.457646,0 22.881391,-13.09324 22.881391,-34.70344 0,-25.16954 -13.601716,-38.26278 -27.839026,-38.26278 z m -11.05934,80.84759 c 0.381357,-0.25424 0.508476,-0.38136 0.889832,-0.6356 -17.415281,-4.95763 -29.745809,-20.59325 -29.745809,-41.94921 0,-11.94918 3.177971,-22.50004 8.898319,-30.38141 7.754249,-10.67798 19.449183,-16.77969 32.669543,-16.77969 24.661055,0 43.47464,17.41529 43.47464,44.74584 0,11.69493 -2.92373,21.35596 -8.1356,28.85597 -6.355944,9.02544 -15.762738,14.74579 -26.949197,16.65257 -0.635594,0.12712 -1.271188,0.38136 -2.16102,0.76272 -1.652545,0.63559 -3.559328,1.65254 -4.576278,2.16102 l -1.271189,0.63559 1.398308,0.38136 c 12.203408,2.79661 20.084777,9.40679 27.839026,9.40679 3.177971,0 6.86442,-1.77966 8.7712,-4.19492 l 1.65255,-2.16102 6.73729,4.83052 -1.65254,2.41525 c -5.46611,8.00849 -12.07629,11.56782 -20.593254,11.56782 -16.39833,0 -25.042412,-9.78815 -32.92378,-11.56782 -1.652545,-0.38135 -2.669496,-0.50847 -3.432209,-0.50847 -1.144069,0.12712 -4.830516,1.52542 -6.61018,5.84746 l -1.271188,2.79662 -10.677983,-5.46611 1.906783,-2.79662 c 3.432209,-5.08475 9.152557,-10.29662 15.762736,-14.61866 z m -1.398307,-0.25424 c -6.355942,4.19492 -11.822052,9.40679 -15.254261,14.36443 l -2.542377,3.68645 12.711884,6.48306 1.652545,-3.81357 c 1.652545,-3.94068 5.084754,-5.08475 5.720348,-5.21187 0.762713,0 1.652545,0.12712 3.177971,0.38136 7.372893,1.77966 16.398331,11.69493 33.178018,11.69493 8.898324,0 15.762734,-3.81357 21.483084,-12.07629 l 2.28814,-3.17797 -8.38984,-5.97459 -2.28814,2.92374 c -1.77967,2.16102 -5.211875,3.81356 -8.00849,3.81356 -6.991536,0 -14.364429,-5.97458 -26.3136,-9.02544 0.635594,-0.38135 1.906782,-0.88983 3.050852,-1.3983 1.398307,-0.50848 3.30509,-1.27119 4.576278,-1.39831 10.296627,-2.28814 19.067827,-8.00849 25.16953,-16.65257 5.46611,-7.62713 8.38984,-17.5424 8.38984,-29.36445 0,-27.83903 -19.322059,-45.76279 -44.49159,-45.76279 -13.474598,0 -25.550888,6.35595 -33.432256,17.16105 -5.974586,8.1356 -9.152557,18.81359 -9.152557,31.017 0,20.9746 11.694934,36.61022 28.474621,42.33057 z"
         style="font-style:normal;font-variant:normal;font-weight:normal;font-stretch:normal;font-size:127.11884308px;font-family:'Linux Libertine Initials O';-inkscape-font-specification:'Linux Libertine Initials O';writing-mode:lr-tb;fill:#212121;fill-opacity:1;fill-rule:evenodd;stroke:url(#linearGradient2297);stroke-width:0.27239752;stroke-opacity:1"
         id="path831"
         inkscape:connector-curvature="0" />
    </g>
  </g>
</svg>
